<svg width="3000" height="3000" viewBox="0 0 3000 3000" fill="none" xmlns="http://www.w3.org/2000/svg">
<g clip-path="url(#clip0_5237_72492)">
<path d="M0 1500C0 2328.43 671.573 3000 1500 3000C2328.43 3000 3000 2328.43 3000 1500C3000 671.573 2328.43 0 1500 0C671.573 0 0 671.573 0 1500Z" fill="#5A50FE"/>
<mask id="mask0_5237_72492" style="mask-type:alpha" maskUnits="userSpaceOnUse" x="0" y="0" width="3000" height="3000">
<path d="M0 1500C0 2328.43 671.573 3000 1500 3000C2328.43 3000 3000 2328.43 3000 1500C3000 671.573 2328.43 0 1500 0C671.573 0 0 671.573 0 1500Z" fill="#5A50FE"/>
</mask>
<g mask="url(#mask0_5237_72492)">
<path d="M3000 316.462V689.167C2689.59 710.161 1678.59 942.064 971.846 3000H556.373L0 1946.62H423.773L738.185 2348.33C738.185 2348.33 1450.1 408.54 3000 316.462Z" fill="#13131A"/>
</g>
</g>
<defs>
<clipPath id="clip0_5237_72492">
<rect width="3000" height="3000" fill="white"/>
</clipPath>
</defs>
</svg>
